<?xml version="1.0" encoding="utf-8"?>
<svg viewBox="0 0 48 48" xmlns="http://www.w3.org/2000/svg" role="img" aria-label="WeChat"><title>WeChat</title><path fill="#07C160" d="M18.2 8C10.4 8 4 13.4 4 20.1c0 3.8 2.1 7.2 5.4 9.5l-1.3 4 4.7-2.4c1.7.5 3.5.8 5.4.8.5 0 1 0 1.5-.1-.3-1-.5-2-.5-3.1 0-5.9 5.7-10.7 12.6-10.7.4 0 .8 0 1.2.1C32 12.8 25.6 8 18.2 8zm-5.3 5.5c1 0 1.8.8 1.8 1.8s-.8 1.8-1.8 1.8-1.8-.8-1.8-1.8.8-1.8 1.8-1.8zm10.6 0c1 0 1.8.8 1.8 1.8s-.8 1.8-1.8 1.8-1.8-.8-1.8-1.8.8-1.8 1.8-1.8zM32.4 20.7c-6.2 0-11.2 4.3-11.2 9.5 0 5.3 5 9.5 11.2 9.5 1.4 0 2.8-.2 4-.6l3.7 1.9-1-3c2.7-1.7 4.5-4.5 4.5-7.8.1-5.2-4.9-9.5-11.2-9.5zM28.6 25c.8 0 1.5.6 1.5 1.5 0 .8-.6 1.5-1.5 1.5-.8 0-1.5-.6-1.5-1.5 0-.8.7-1.5 1.5-1.5zm7.8 0c.8 0 1.5.6 1.5 1.5 0 .8-.6 1.5-1.5 1.5-.8 0-1.5-.6-1.5-1.5 0-.8.7-1.5 1.5-1.5z"/></svg>
